<svg width="32" height="32" viewBox="0 0 32 32" fill="none" xmlns="http://www.w3.org/2000/svg">
<path d="M16 9.33335C16.3778 9.33335 16.6947 9.20535 16.9507 8.94935C17.2067 8.69335 17.3342 8.37691 17.3333 8.00002C17.3324 7.62313 17.2044 7.30669 16.9493 7.05069C16.6942 6.79469 16.3778 6.66669 16 6.66669C15.6222 6.66669 15.3058 6.79469 15.0507 7.05069C14.7956 7.30669 14.6676 7.62313 14.6667 8.00002C14.6658 8.37691 14.7938 8.6938 15.0507 8.95069C15.3076 9.20758 15.624 9.33513 16 9.33335ZM14.6667 20H17.3333V12H14.6667V20ZM2.66666 29.3334V5.33335C2.66666 4.60002 2.928 3.97246 3.45066 3.45069C3.97333 2.92891 4.60089 2.66758 5.33333 2.66669H26.6667C27.4 2.66669 28.028 2.92802 28.5507 3.45069C29.0733 3.97335 29.3342 4.60091 29.3333 5.33335V21.3334C29.3333 22.0667 29.0724 22.6947 28.5507 23.2174C28.0289 23.74 27.4009 24.0009 26.6667 24H8L2.66666 29.3334Z" fill="#218EE1"/>
</svg>
